<?xml version="1.0" encoding="UTF-8"?>
<!DOCTYPE svg PUBLIC "-//W3C//DTD SVG 1.1//EN" "http://www.w3.org/Graphics/SVG/1.1/DTD/svg11.dtd">
<!-- Creator: CorelDRAW X7 -->
<svg xmlns="http://www.w3.org/2000/svg" xml:space="preserve" width="9.24084in" height="4.65676in" version="1.1" style="shape-rendering:geometricPrecision; text-rendering:geometricPrecision; image-rendering:optimizeQuality; fill-rule:evenodd; clip-rule:evenodd"
viewBox="0 0 9241 4657"
 xmlns:xlink="http://www.w3.org/1999/xlink">
 <defs>
  <style type="text/css">
   <![CDATA[
    .fil2 {fill:#3E4095}
    .fil1 {fill:#373435;fill-rule:nonzero}
    .fil0 {fill:#00AFEF;fill-rule:nonzero}
   ]]>
  </style>
 </defs>
 <g id="Layer_x0020_1">
  <metadata id="CorelCorpID_0Corel-Layer"/>
  <g id="_2237846883120">
   <path class="fil0" d="M1580 2015c0,179 -40,309 -121,387 -80,79 -162,129 -245,153 -83,23 -196,35 -341,35 -135,0 -243,-11 -322,-32 -79,-21 -152,-60 -217,-119 -107,-82 -161,-224 -161,-427l0 -1493c0,-110 13,-195 39,-254 25,-60 71,-111 136,-153 65,-42 139,-71 220,-87 82,-17 193,-25 333,-25 142,0 248,8 317,25 69,16 130,45 183,87 54,42 88,89 104,140 15,51 22,128 22,231l0 210 -220 0 0 -182c0,-70 -4,-120 -11,-149 -7,-29 -24,-58 -52,-87 -28,-29 -68,-50 -119,-62 -51,-11 -138,-17 -259,-17 -170,0 -290,25 -359,75 -69,50 -103,140 -103,269l0 1451c0,100 5,165 16,196 10,30 48,72 113,125 66,52 187,78 364,78 159,0 274,-31 345,-93 71,-62 107,-163 107,-303l0 -664 -595 0 0 -189 826 0 0 874z"/>
   <polygon class="fil0" points="2490,32 2703,32 2703,2555 2490,2555 "/>
   <path class="fil0" d="M6647 462c320,0 480,134 480,402l-9 147 -166 1117c-23,171 -78,290 -165,359 -86,68 -223,103 -410,103 -202,0 -348,-45 -438,-135 -90,-90 -135,-236 -135,-439l0 -1984 210 0 0 1991c0,259 125,388 374,388 110,0 192,-25 247,-77 55,-51 92,-139 110,-262l162 -1050 10 -88c0,-105 -23,-178 -70,-220 -47,-42 -132,-63 -256,-63l-504 0 0 -189 560 0z"/>
   <path class="fil0" d="M8516 2555c-147,0 -249,-8 -308,-25 -58,-16 -111,-49 -159,-99 -48,-51 -82,-108 -101,-172 -20,-64 -30,-143 -30,-236l0 -1071c0,-84 9,-155 28,-212 18,-57 52,-111 100,-163 47,-51 112,-87 192,-108 81,-21 205,-32 373,-32 228,0 389,39 483,117 93,77 140,212 140,407l0 579 -1033 0 0 -189 823 0 0 -364c0,-117 -22,-208 -65,-273 -43,-65 -170,-98 -380,-98 -165,0 -283,29 -351,86 -69,57 -104,154 -104,292l0 1004c0,126 24,214 72,265 48,50 89,79 124,89 35,9 112,14 231,14l602 0 0 189 -637 0z"/>
   <path class="fil1" d="M331 2995c10,-41 18,-68 24,-81 6,-13 18,-28 35,-44 18,-16 48,-25 88,-25 22,0 40,3 55,8 14,4 27,12 38,22 12,10 21,24 28,40 7,16 15,43 25,80l331 1343 -137 0 -122 -487 -437 0 -120 488 -139 -1 331 -1343zm-53 746l399 0 -178 -722c-6,-22 -9,-36 -11,-42 -2,-6 -6,-9 -12,-9 -5,0 -12,17 -20,51l-178 722zm1953 282c0,75 -6,130 -18,165 -13,34 -44,72 -94,113 -51,41 -142,61 -274,61 -72,0 -130,-5 -173,-16 -43,-11 -82,-31 -119,-59 -36,-29 -61,-62 -74,-98 -14,-37 -21,-92 -21,-166l0 -908 123 0 0 906c0,89 20,150 59,184 40,34 109,51 209,51 94,0 161,-18 200,-53 40,-36 59,-96 59,-182l0 -906 123 0 0 908zm965 233c-57,0 -102,-4 -135,-12 -33,-8 -65,-24 -95,-46 -30,-23 -51,-47 -63,-74 -11,-26 -22,-74 -31,-142l-80 -544 -10 -90c0,-155 97,-233 290,-233l485 0 0 1223c0,114 -30,196 -88,245 -59,49 -158,74 -297,74 -139,0 -230,-22 -275,-65 -44,-43 -73,-82 -86,-117 -12,-36 -19,-85 -19,-147l119 0c4,46 10,80 18,103 8,22 28,48 60,78 32,29 97,43 196,43 169,0 253,-74 253,-224l0 -1102 -324 0c-59,0 -97,2 -114,7 -17,5 -37,20 -61,45 -23,25 -35,57 -35,97l9 59 76 532c10,66 31,113 65,139 33,27 86,41 157,41l178 0 0 110 -193 0zm973 -844c0,-98 24,-176 74,-232 50,-57 152,-85 306,-85 50,0 105,7 163,20 36,11 63,23 83,36 20,13 44,37 73,71l49 -54c57,-49 148,-73 272,-73 73,0 137,9 192,26 54,18 99,47 134,86 35,40 52,108 52,205l0 926 -121 0 0 -916c0,-41 -2,-71 -8,-91 -5,-20 -22,-46 -50,-78 -28,-32 -96,-48 -205,-48 -107,0 -176,19 -207,56 -31,38 -47,93 -47,165l0 912 -120 0 0 -912c0,-71 -17,-125 -49,-164 -32,-38 -102,-57 -211,-57 -101,0 -167,16 -197,48 -31,32 -49,58 -55,77 -5,19 -8,50 -8,92l0 916 -120 0 0 -926zm2360 926c-86,0 -146,-5 -180,-14 -34,-10 -65,-29 -93,-59 -28,-29 -48,-62 -60,-100 -11,-37 -17,-83 -17,-138l0 -625c0,-50 5,-91 16,-124 11,-34 31,-65 59,-95 28,-30 65,-51 112,-64 47,-12 120,-18 218,-18 133,0 227,22 282,68 54,45 82,124 82,238l0 338 -603 0 0 -110 480 0 0 -213c0,-68 -13,-121 -38,-160 -25,-38 -99,-57 -222,-57 -96,0 -165,17 -205,50 -40,34 -60,91 -60,171l0 587c0,73 14,125 41,154 28,29 53,47 73,52 21,6 65,8 135,8l352 0 0 111 -372 0zm1016 -929c0,-64 5,-110 15,-138 9,-28 37,-63 82,-105 46,-42 144,-63 294,-63 132,0 223,20 272,60 49,41 78,75 88,103 9,29 14,77 14,143l0 929 -123 0 0 -906c0,-82 -19,-139 -58,-173 -39,-33 -105,-50 -199,-50 -96,0 -164,17 -204,50 -40,34 -60,91 -60,173l0 906 -121 0 0 -929zm1621 929c-91,0 -155,-23 -192,-69 -37,-45 -56,-123 -56,-232l0 -1118 122 -72 0 268 201 0 0 111 -201 0 0 795c0,80 11,136 33,166 21,30 61,45 119,45l8 0 41 0 0 106 -75 0z"/>
   <path class="fil2" d="M4229 1968c11,0 16,-1 28,0 10,1 22,0 32,0 10,0 6,-1 13,-2l21 -3c28,-4 54,-15 75,-19 9,-2 17,-5 26,-10 8,-4 4,-2 12,-4 22,-7 43,-20 62,-31l74 -59c5,-4 3,-2 6,-5l15 -14c12,-11 19,-22 30,-34 44,-46 83,-145 95,-213l6 -97c-2,-10 -2,-20 -3,-31 -2,-40 -18,-101 -35,-137 -11,-24 -23,-46 -38,-69 -6,-9 -9,-15 -14,-24 -11,-15 -24,-27 -37,-41 -38,-41 -89,-82 -141,-107l-65 -25c-26,-7 -47,-12 -72,-15l-79 -3c-22,0 -20,-2 -47,2 -22,3 -35,5 -57,10 -36,8 -69,24 -102,40 -20,9 -41,23 -59,34 -25,15 -53,46 -73,67 -36,40 -24,29 -51,70 -25,37 -62,109 -58,156 2,23 7,30 21,47 10,13 33,31 56,31 35,1 54,-10 75,-32 11,-12 9,-7 15,-28 6,-22 29,-78 41,-94 27,-38 62,-71 102,-94 8,-4 15,-8 23,-12l62 -18c1,0 2,0 2,-1l19 -4c37,-6 85,-4 130,9 10,3 53,22 60,27 16,12 33,20 48,34 33,27 67,69 80,108 4,11 6,17 10,27 10,26 13,57 14,85 2,31 -6,75 -16,106 -5,15 -13,26 -20,41l-10 13c-4,6 -3,7 -6,14l-14 17c-1,1 -5,5 -6,6 -22,22 -14,21 -29,33 -34,26 -50,42 -91,57 -11,4 -13,8 -26,10 -18,3 -38,9 -58,10 -37,3 -64,-1 -99,-10 -14,-3 -25,-1 -33,-3 -1,0 -1,0 -2,1 0,0 -1,0 -2,1l-15 5c-35,10 -52,43 -56,79 -2,11 4,28 7,36 28,61 119,53 154,63z"/>
   <path class="fil2" d="M4729 1065c17,11 15,28 65,36 63,11 109,-57 87,-115 -5,-11 -13,-17 -16,-29 0,0 -92,-92 -116,-107 -7,-4 -16,-11 -23,-17 -4,-3 -6,-5 -11,-8l-46 -31c-24,-17 -4,-4 -27,-14 -16,-7 -6,-5 -11,-9 -6,-5 -22,-8 -30,-13 -29,-18 -27,-8 -56,-26 -15,-9 -49,-16 -68,-21 -79,-22 -61,-14 -132,-27 -23,-4 -126,-5 -148,-3 -84,7 -155,22 -235,53 -49,18 -96,41 -140,69 -26,16 -58,37 -83,59 -32,29 -42,34 -78,71 -5,5 -11,13 -17,18l-52 65c-2,4 -5,8 -8,12 -5,7 -5,5 -9,9 -4,6 -4,9 -7,14 -4,8 -4,5 -8,11l-44 78c-7,11 -8,17 -13,30 -7,20 -18,38 -24,60 -13,45 -29,96 -35,140l-5 59c-1,29 -4,30 5,57 13,33 47,59 94,51 16,-3 31,-10 45,-22 12,-12 25,-34 25,-57 0,-52 25,-148 43,-197 5,-12 8,-16 13,-29 5,-11 8,-19 14,-28 5,-8 9,-18 14,-26 6,-9 10,-19 15,-27 33,-50 78,-103 124,-142 7,-6 15,-9 21,-14 9,-7 3,-6 20,-18 7,-5 13,-9 21,-15 59,-39 116,-67 186,-86 33,-9 99,-22 134,-22 7,0 10,1 16,0 62,-6 146,8 206,26 25,7 38,15 64,23 17,5 14,7 25,14 10,6 21,6 31,12 35,21 68,40 97,64 26,20 39,37 59,55 6,5 14,13 18,17z"/>
   <path class="fil2" d="M4033 2279c39,10 81,25 121,26 12,0 23,4 34,4 24,0 50,2 74,0l34 0c8,0 10,1 17,0l87 -12c10,-2 18,-4 29,-6 71,-13 140,-43 205,-75 8,-5 14,-9 22,-14l114 -75c31,-27 61,-56 90,-87l29 -34c13,-18 22,-31 34,-49 12,-16 22,-34 33,-50l30 -54c13,-25 59,-140 55,-172 -3,-14 -3,-27 -12,-40 0,-1 0,-2 -1,-2 0,-1 0,-1 -1,-2 0,0 -1,-1 -1,-1 0,0 -4,-5 -5,-6 -16,-21 -30,-26 -56,-31 -16,-3 -19,-2 -31,2 -49,16 -57,44 -71,92 -16,59 -51,124 -86,173 -13,17 -23,31 -37,48 -6,7 -12,14 -18,21 -5,6 0,0 -3,4l-6 6c-5,6 -5,6 -11,10 -14,8 -11,9 -21,19 -20,18 -43,34 -64,50 -16,13 -30,20 -45,29l-41 22c-68,34 -147,54 -224,61 -14,1 -22,-4 -33,-1 -7,1 -2,2 -14,1 -11,0 -10,1 -17,1 -11,0 -22,-3 -31,-3 -13,1 -1,2 -14,2l-88 -15c-33,-9 -75,-17 -104,-33 -10,-5 -25,-9 -33,-14 -16,-11 -1,-5 -27,-13 -16,-6 -38,-18 -51,-28l-22 -14c0,-1 -1,-1 -1,-2 -1,0 -1,0 -2,-1 -2,-3 -2,-3 -5,-5 -15,-13 -31,-23 -45,-36 -4,-3 -5,-5 -9,-10 -18,-20 -41,-38 -58,-60l-41 -55c-54,-82 -181,-19 -152,75 8,24 48,76 62,90 26,25 48,56 76,80 24,20 92,77 113,89 6,3 10,4 15,7 7,4 3,4 12,9l29 16c73,30 79,40 166,63z"/>
   <path class="fil2" d="M3478 2321c14,-6 76,-12 79,-87 2,-52 -40,-75 -83,-131 -42,-55 -52,-74 -86,-131 -20,-35 -35,-68 -49,-107l-1 -3c-2,-4 -1,-3 -2,-5 -2,-5 -2,-4 -4,-9l-20 -58c-5,-13 -9,-25 -12,-38l-25 -119c-4,-24 -7,-63 -5,-88l-4 -42c-1,-33 4,-50 2,-69 -1,-17 11,-103 14,-120 3,-18 8,-36 13,-54 8,-31 13,-54 -6,-86 -29,-49 -110,-62 -148,0 -10,16 -23,82 -27,102 -4,20 -4,32 -7,49 -9,41 -4,15 -6,48l-7 117c1,9 -1,14 -2,25 0,25 3,43 6,62 1,11 -2,24 2,43 5,22 9,82 15,105l19 80c2,7 4,12 6,18l4 15c9,35 30,81 43,115 32,80 109,201 162,269 7,8 67,80 79,87 4,3 42,15 50,12z"/>
   <path class="fil2" d="M4130 2649l63 3c19,1 7,3 32,1l55 2c8,0 6,-2 18,-3 34,-2 11,5 50,-3 1,0 8,-1 10,-1l60 -6c100,-13 196,-44 289,-82l98 -47c31,-17 97,-55 124,-78 11,-10 18,-13 29,-22l85 -71c9,-10 17,-19 27,-27 6,-5 8,-8 14,-13 4,-4 2,-1 7,-6l2 -2c1,-1 1,-1 2,-2l52 -62c18,-26 40,-45 48,-66 4,2 12,-14 19,-23l37 -61c4,-8 5,-8 9,-15l42 -81c7,-14 11,-17 16,-34 4,-14 9,-26 15,-37 21,-41 60,-188 64,-243 1,-15 3,-23 6,-40 3,-13 0,-22 3,-37 1,-9 5,-20 5,-28l-1 -6c0,-1 0,-2 -1,-2 0,-8 2,-11 2,-19 1,-12 -1,-6 -2,-16 -3,-30 5,-81 -2,-108l-12 -102c0,-11 -4,-19 -6,-30 -15,-81 -39,-155 -68,-231 -1,-4 -3,-11 -5,-14 -2,-4 -5,-8 -7,-13 -19,-40 -40,-87 -66,-126l-70 -106 -150 -160c-8,-8 -18,-14 -26,-22 -22,-22 -76,-64 -107,-82 -50,-30 -72,-45 -128,-70l-66 -33c-41,-17 -117,-47 -160,-52 -21,-2 -44,7 -59,19 -21,16 -32,39 -34,66 -5,59 40,79 91,93 48,14 104,38 147,57l34 17c4,2 9,7 13,9 7,4 13,5 20,9 20,11 37,26 57,38 30,19 55,38 80,60l72 67c16,16 29,31 44,48 28,31 51,65 74,99 24,36 42,69 60,110 3,5 4,7 7,12 3,5 5,9 7,14 3,6 4,8 6,14l20 52c0,1 3,5 3,6 12,28 37,116 40,141 7,43 17,88 17,132 0,25 2,48 2,72 0,14 -2,24 -1,37 2,16 -3,22 -4,39 -2,12 0,18 -3,34 -1,13 -4,29 -5,40 -4,28 -12,56 -19,84 -7,26 -15,59 -24,83 -6,17 -10,17 -16,35 -4,14 -8,26 -14,39 -14,27 -25,55 -41,80l-18 32c-4,7 -6,10 -10,16 -4,5 -5,9 -9,15l-70 95c-6,2 -1,0 -6,4l-34 36c-20,19 -31,36 -59,57l-31 27c-5,3 -9,7 -12,9 -38,33 -137,95 -184,115 -39,17 -18,10 -63,25l-5 2c-1,0 -1,1 -2,1l-19 8c-17,8 -72,24 -91,29l-83 19c-11,2 -19,2 -29,4 -39,7 -161,16 -184,7l-5 1c-23,3 -104,-10 -124,-15 -36,-7 -79,17 -92,46 -18,42 -3,84 23,103 35,26 82,21 127,34z"/>
   <path class="fil2" d="M3397 936c41,1 58,-25 76,-46 47,-58 105,-120 164,-166 5,-4 12,-8 18,-13l56 -39c49,-32 48,-30 95,-56 22,-12 40,-31 47,-57 9,-34 -5,-67 -30,-88 -24,-19 -69,-25 -101,-5 -8,4 -13,7 -20,10 -8,5 -13,8 -19,11 -29,16 -53,33 -77,47 -51,30 -83,62 -125,97 -26,21 -123,121 -145,154 -17,26 -40,48 -22,95 13,36 45,54 83,56z"/>
   <path class="fil2" d="M4110 516c17,-1 16,2 32,-3 79,-22 89,-151 -20,-168 -24,-4 -42,6 -58,17 -65,48 -27,156 46,154z"/>
   <path class="fil2" d="M3728 2512c15,-1 18,0 33,-3 38,-9 88,-70 36,-137 -3,-4 0,-1 -5,-6 -36,-39 -130,-40 -143,56 -2,12 0,23 3,33 11,31 45,60 76,57z"/>
   <path class="fil2" d="M5018 1404c2,-4 5,-6 8,-9 12,-13 21,-29 23,-48 1,-20 -5,-41 -16,-57 -10,-17 -28,-31 -54,-36 -27,-6 -43,-3 -61,9 0,1 -1,1 -2,2 0,1 -1,1 -1,2l-5 5c-18,16 -26,24 -31,53 -9,45 21,88 77,96 27,5 53,-14 62,-17z"/>
   <path class="fil2" d="M4130 2649c-45,-13 -92,-8 -127,-34 -26,-19 -41,-61 -23,-103 13,-29 56,-53 92,-46 20,5 101,18 124,15l5 -1c-22,-10 -43,-5 -65,-9 -56,-10 -135,-29 -161,41 -10,28 -11,42 -6,64 3,11 11,25 19,34 1,1 3,4 5,5l3 3c1,0 1,1 2,1 21,19 121,37 132,30z"/>
   <path class="fil2" d="M4229 1968c-35,-10 -126,-2 -154,-63 -3,-8 -9,-25 -7,-36 4,-36 21,-69 56,-79l15 -5c1,-1 2,-1 2,-1 1,-1 1,-1 2,-1 -13,-3 -28,2 -39,8 -9,5 -21,18 -27,28 -19,33 -20,51 -8,85l1 4c1,2 1,4 1,5l4 7c12,18 33,28 56,35 12,4 70,17 85,16 2,0 4,-1 6,-1l7 -2z"/>
   <path class="fil2" d="M4865 957c3,12 11,18 16,29 22,58 -24,126 -87,115 -50,-8 -48,-25 -65,-36l9 16c7,7 6,6 15,11 12,9 20,15 39,16 28,2 50,-5 69,-20 1,0 1,-1 2,-1 44,-38 32,-114 2,-130z"/>
   <path class="fil2" d="M5018 1404c-9,3 -35,22 -62,17 -56,-8 -86,-51 -77,-96 5,-29 13,-37 31,-53l5 -5c0,-1 1,-1 1,-2 1,-1 2,-1 2,-2 -12,2 -20,11 -27,19 -13,15 -23,60 -17,79l7 15c2,3 5,9 8,14l26 24c31,15 38,17 73,9 13,-3 24,-6 30,-19z"/>
  </g>
 </g>
</svg>
